# AST/ASF file generated using VICON BodyLanguage
# -----------------------------------------------
:version 1.10
:name VICON
:units
  mass 1.0
  length 0.45
  angle deg
:documentation
   .ast/.asf automatically generated from VICON data using
   VICON BodyBuilder and BodyLanguage model FoxedUp or BRILLIANT.MOD
:root
   order TX TY TZ RX RY RZ
   axis XYZ
   position 0 0 0  
   orientation 0 0 0 
:bonedata
  begin
     id 1 
     name lhipjoint
     direction 0.606768 -0.715223 0.346827 
     length 2.41543 
     axis 0 0 0  XYZ
  end
  begin
     id 2 
     name lfemur
     direction 0.34202 -0.939693 0  
     length 7.2778  
     axis 0 0 20  XYZ
    dof rx ry rz
    limits (-160.0 20.0)
           (-70.0 70.0)
           (-60.0 70.0)
  end
  begin
     id 3 
     name ltibia
     direction 0.34202 -0.939693 0   
     length 7.61811   
     axis 0 0 20   XYZ
    dof rx
    limits (-10.0 170.0)
  end
  begin
     id 4 
     name lfoot
     direction 0.0823924 -0.226371 0.97055   
     length 2.33618   
     axis -90 7.62852e-016 20   XYZ
    dof rx rz
    limits (-45.0 90.0)
           (-70.0 20.0)
  end
  begin
     id 5 
     name ltoes
     direction 1.53554e-011 -4.21934e-011 1   
     length 1.17015   
     axis -90 7.62852e-016 20   XYZ
    dof rx
    limits (-90.0 20.0)
  end
  begin
     id 6 
     name rhipjoint
     direction -0.6077 -0.714582 0.346516   
     length 2.4176  
     axis 0 0 0  XYZ 
  end
  begin
     id 7 
     name rfemur
     direction -0.34202 -0.939693 0   
     length 7.28127   
     axis 0 0 -20   XYZ
    dof rx ry rz
    limits (-160.0 20.0)
           (-70.0 70.0)
           (-70.0 60.0)
  end
  begin
     id 8 
     name rtibia
     direction -0.34202 -0.939693 0   
     length 7.77648   
     axis 0 0 -20   XYZ
    dof rx
    limits (-10.0 170.0)
 end
 begin
     id 9 
     name rfoot
     direction -0.0809463 -0.222398 0.97159   
     length 2.37533  
     axis -90 -7.62852e-016 -20   XYZ
    dof rx rz
    limits (-45.0 90.0)
           (-20.0 70.0)
  end
  begin
     id 10 
     name rtoes
     direction -1.53568e-011 -4.21714e-011 1   
     length 1.18972   
     axis -90 -7.62852e-016 -20   XYZ
    dof rx
    limits (-90.0 20.0)
  end
  begin
     id 11 
     name lowerback
     direction 0.010968 0.991932 -0.126297   
     length 2.21698   
     axis 0 0 0   XYZ
    dof rx ry rz
    limits (-20.0 45.0)
           (-30.0 30.0)
           (-30.0 30.0)
  end
  begin
     id 12 
     name upperback
     direction 0.0167007 0.997503 -0.0686276   
     length 2.22371   
     axis 0 0 0   XYZ
    dof rx ry rz
    limits (-20.0 45.0)
           (-30.0 30.0)
           (-30.0 30.0)
  end
  begin
     id 13 
     name thorax
     direction 0.0111721 0.999885 -0.0102878   
     length 2.25242   
     axis 0 0 0   XYZ
    dof rx ry rz
    limits (-20.0 45.0)
           (-30.0 30.0)
           (-30.0 30.0)
  end
  begin
     id 14 
     name lowerneck
     direction -0.0120265 0.990428 0.137508   
     length 1.57674   
     axis 0 0 0   XYZ
    dof rx ry rz
    limits (-20.0 45.0)
           (-30.0 30.0)
           (-30.0 30.0)
  end
  begin
     id 15 
     name upperneck
     direction 0.0175669 0.998907 0.0433089   
     length 1.5618   
     axis 0 0 0   XYZ
    dof rx ry rz
    limits (-20.0 45.0)
           (-30.0 30.0)
           (-30.0 30.0)
  end
  begin
     id 16
     name head
     direction 0.00754609 0.99997 0.00185367  
     length 1.60579  
     axis 0 0 0   XYZ
    dof rx ry rz
    limits (-20.0 45.0)
           (-30.0 30.0)
           (-30.0 30.0)
  end
  begin
     id 17 
     name lclavicle
     direction 0.885866 0.429166 -0.176231  
     length 3.44967  
     axis 0 0 0   XYZ
    dof ry rz
    limits (-20.0 10.0)
           (0.0 20.0)
  end
  begin
     id 18 
     name lhumerus
     direction 1 -4.48973e-011 -1.90255e-027   
     length 5.20607   
     axis 180 -30 -90   XYZ
    dof rx ry rz
    limits (-60.0 90.0)
           (-90.0 90.0)
           (-90.0 90.0)
  end
  begin
     id 19
     name lradius
     direction 1 -4.48956e-011 9.87925e-027   
     length 3.39961   
     axis 180 -30 -90   XYZ
    dof rx
    limits (-10.0 170.0)
  end
  begin
     id 20
     name lwrist
     direction 1 -4.48985e-011 1.73247e-026   
     length 1.6998   
     axis -9.60847e-015 90 90   XYZ
    dof ry
    limits (-180.0 0.0)
 end
  begin
     id 21 
     name lhand
     direction 1 -4.48798e-011 3.46119e-026   
     length 0.519693   
     axis -2.21073e-014 90 90   XYZ
    dof rx rz
    limits (-90.0 90.0)
           (-45.0 45.0)
  end
  begin
     id 22 
     name lfingers
     direction 1 -4.48938e-011 6.92797e-026   
     length 0.41899   
     axis -4.42155e-014 90 90   XYZ
    dof rx
    limits (0.0 90.0)
  end
  begin
     id 23
     name lthumb
     direction 0.707107 -6.34952e-011 0.707107   
     length 0.601588   
     axis -90 45 6.0103e-014   XYZ
    dof rx rz
    limits (-45.0 45.0)
           (-45.0 45.0)
  end
  begin
     id 24 
     name rclavicle
     direction -0.866736 0.456792 -0.200276   
     length 3.45032  
     axis 0 0 0   XYZ 
    dof ry rz
    limits (-10.0 20.0)
           (-20.0 0.0)
  end
  begin
     id 25 
     name rhumerus
     direction -1 -4.4897e-011 8.65094e-028  
     length 5.32214   
     axis 180 30 90   XYZ
    dof rx ry rz
    limits (-90.0 60.0)
           (-90.0 90.0)
           (-90.0 90.0)
  end
  begin
     id 26 
     name rradius
     direction -1 -4.48987e-011 1.08427e-026   
     length 3.51208   
     axis 180 30 90   XYZ
    dof rx
    limits (-10.0 170.0)
  end
  begin
     id 27 
     name rwrist
     direction -1 -4.48961e-011 1.73222e-026   
     length 1.75604   
     axis -9.60847e-015 -90 -90   XYZ
    dof ry
    limits (-180.0 0.0)
  end
  begin
     id 28
     name rhand
     direction -1 -4.48895e-011 3.46314e-026   
     length 0.586681   
     axis -2.21073e-014 -90 -90   XYZ
    dof rx rz
    limits (-90.0 90.0)
           (-45.0 45.0)
  end
  begin
     id 29
     name rfingers
     direction -1 -4.48968e-011 6.92916e-026   
     length 0.472997   
     axis -4.42155e-014 -90 -90   XYZ
    dof rx
    limits (0.0 90.0)
  end
  begin
     id 30
     name rthumb
     direction -0.707107 -6.34848e-011 0.707107   
     length 0.679133   
     axis -90 -45 -6.0103e-014   XYZ
    dof rx rz
    limits (-45.0 45.0)
           (-45.0 45.0)
  end
:hierarchy
  begin
    root lhipjoint rhipjoint lowerback
    lhipjoint lfemur
    lfemur ltibia
    ltibia lfoot
    lfoot ltoes
    rhipjoint rfemur
    rfemur rtibia
    rtibia rfoot
    rfoot rtoes
    lowerback upperback
    upperback thorax
    thorax lowerneck lclavicle rclavicle
    lowerneck upperneck
    upperneck head
    lclavicle lhumerus
    lhumerus lradius
    lradius lwrist
    lwrist lhand lthumb
    lhand lfingers
    rclavicle rhumerus
    rhumerus rradius
    rradius rwrist
    rwrist rhand rthumb
    rhand rfingers
  end

#!OML:ASF H:\Dans Jumps\Project 1\Capture day 1\Session 1\subject.ASF
:FULLY-SPECIFIED
:DEGREES
78
root 0.552732 17.6166 -13.9049 6.79129 -1.55095 -0.924416
lowerback -3.46222 -0.272283 -0.156376
upperback 3.31788 -0.416698 1.25489
thorax 5.38742 -0.239536 1.35479
lowerneck -12.7144 1.08466 -1.65984
upperneck 33.4805 1.66691 1.07705
head 13.3453 0.655909 0.962454
rclavicle -3.18055e-015 1.19271e-014
rhumerus -22.6008 -12.4892 -82.4937
rradius 26.7342
rwrist 30.8394
rhand -17.9684 -27.0359
rfingers 7.12502
rthumb 8.30087 -56.8528
lclavicle -3.18055e-015 1.19271e-014
lhumerus -19.7265 -5.34187 89.9672
lradius 21.7879
lwrist 2.32309
lhand -24.0697 -2.49913
lfingers 7.12502
lthumb 2.41008 27.467
rfemur -14.2555 -2.76801 19.3287
rtibia 22.978
rfoot -14.262 -4.12201
rtoes 12.0968
lfemur -12.3798 5.98697 -18.8074
ltibia 19.0299
lfoot -10.8363 7.05835
ltoes 5.996
79
root 0.552754 17.6167 -13.9045 6.7961 -1.55833 -0.922774
lowerback -3.45791 -0.269682 -0.155363
upperback 3.32064 -0.413183 1.25276
thorax 5.38774 -0.237722 1.35231
lowerneck -12.7066 1.08744 -1.66456
upperneck 33.4905 1.66967 1.08446
head 13.3477 0.657406 0.96665
rclavicle -4.07509e-015 1.19271e-015
rhumerus -22.6478 -12.6973 -82.3746
rradius 26.6029
rwrist 31.0099
rhand -17.954 -27.0599
rfingers 7.12502
rthumb 8.31474 -56.8762
lclavicle -4.07509e-015 1.19271e-015
lhumerus -19.7615 -5.13228 89.8647
lradius 21.6198
lwrist 2.14711
lhand -24.0382 -2.47599
lfingers 7.12502
lthumb 2.44048 27.4898
rfemur -14.2594 -2.76691 19.3263
rtibia 22.9756
rfoot -14.2603 -4.11533
rtoes 12.0958
lfemur -12.3803 5.99291 -18.8104
ltibia 19.0258
lfoot -10.8376 7.05913
ltoes 5.99258
80
root 0.552791 17.6169 -13.9042 6.80173 -1.56347 -0.920658
lowerback -3.45362 -0.267777 -0.154454
upperback 3.32405 -0.410574 1.25012
thorax 5.38876 -0.236355 1.34928
lowerneck -12.7046 1.08903 -1.66665
upperneck 33.5027 1.67165 1.0873
head 13.3525 0.658252 0.968565
rclavicle 4.32357e-015 -8.74653e-015
rhumerus -22.6949 -12.8994 -82.2573
rradius 26.477
rwrist 31.1736
rhand -17.9416 -27.0803
rfingers 7.12502
rthumb 8.3267 -56.8962
lclavicle 4.32357e-015 -8.74653e-015
lhumerus -19.7963 -4.92293 89.7614
lradius 21.4507
lwrist 1.96059
lhand -24.0343 -2.4775
lfingers 7.12502
lthumb 2.44423 27.4882
rfemur -14.2638 -2.76545 19.3236
rtibia 22.9727
rfoot -14.2583 -4.11198
rtoes 12.0899
lfemur -12.3818 5.99619 -18.8138
ltibia 19.0205
lfoot -10.8394 7.06311
ltoes 5.98656
81
root 0.55286 17.6172 -13.9039 6.80795 -1.56592 -0.919667
lowerback -3.44956 -0.26699 -0.152234
upperback 3.32726 -0.409558 1.24791
thorax 5.38974 -0.235734 1.34584
lowerneck -12.7023 1.08937 -1.66759
upperneck 33.5135 1.67241 1.08727
head 13.3567 0.658345 0.96895
rclavicle 6.95746e-015 1.0138e-014
rhumerus -22.7463 -13.0927 -82.1413
rradius 26.36
rwrist 31.3283
rhand -17.9322 -27.0896
rfingers 7.12502
rthumb 8.33575 -56.9051
lclavicle 6.95746e-015 1.0138e-014
lhumerus -19.8317 -4.71312 89.6573
lradius 21.2811
lwrist 1.76839
lhand -24.0391 -2.48694
lfingers 7.12502
lthumb 2.43955 27.4789
rfemur -14.2686 -2.76618 19.3224
rtibia 22.9699
rfoot -14.2581 -4.10849
rtoes 12.0818
lfemur -12.3839 5.9977 -18.8159
ltibia 19.0149
lfoot -10.8411 7.06749
ltoes 5.98721
82
root 0.552943 17.6174 -13.9037 6.81448 -1.56664 -0.919542
lowerback -3.44462 -0.267325 -0.150484
upperback 3.33 -0.410065 1.24698
thorax 5.38977 -0.235909 1.34387
lowerneck -12.7027 1.08907 -1.66446
upperneck 33.5252 1.67347 1.08049
head 13.3619 0.658168 0.966046
rclavicle 1.98785e-016 -1.80894e-014
rhumerus -22.7995 -13.2767 -82.026
rradius 26.2481
rwrist 31.4775
rhand -17.9258 -27.0903
rfingers 7.12502
rthumb 8.34193 -56.9056
lclavicle 1.98785e-016 -1.80894e-014
lhumerus -19.8701 -4.50213 89.5542
lradius 21.1121
lwrist 1.56379
lhand -24.0581 -2.5137
lfingers 7.12502
lthumb 2.42122 27.4523
rfemur -14.2736 -2.76741 19.3223
rtibia 22.9671
rfoot -14.2591 -4.10636
rtoes 12.0777
lfemur -12.3874 5.99818 -18.817
ltibia 19.0096
lfoot -10.8412 7.07186
ltoes 5.98223
83
root 0.553047 17.6177 -13.9035 6.82187 -1.56555 -0.918753
lowerback -3.44095 -0.268797 -0.149808
upperback 3.33269 -0.412055 1.2464
thorax 5.39054 -0.236869 1.34275
lowerneck -12.7006 1.08774 -1.66252
upperneck 33.5331 1.67355 1.07282
head 13.3651 0.657331 0.962776
rclavicle -1.49089e-016 -3.57812e-015
rhumerus -22.8528 -13.4531 -81.9128
rradius 26.1412
rwrist 31.6202
rhand -17.9216 -27.0829
rfingers 7.12502
rthumb 8.34598 -56.8981
lclavicle -1.49089e-016 -3.57812e-015
lhumerus -19.9089 -4.29067 89.4514
lradius 20.9456
lwrist 1.36049
lhand -24.065 -2.52333
lfingers 7.12502
lthumb 2.41456 27.4427
rfemur -14.2794 -2.76933 19.3216
rtibia 22.9646
rfoot -14.2609 -4.10487
rtoes 12.0803
lfemur -12.3927 5.99862 -18.819
ltibia 19.0053
lfoot -10.8422 7.07147
ltoes 5.98602
84
root 0.553146 17.6179 -13.9034 6.8282 -1.56498 -0.917616
lowerback -3.43711 -0.271173 -0.151057
upperback 3.33623 -0.415203 1.247
thorax 5.39215 -0.23851 1.34382
lowerneck -12.7021 1.08655 -1.65838
upperneck 33.5427 1.67522 1.05953
head 13.3698 0.656692 0.957202
rclavicle 6.11263e-015 -1.2921e-014
rhumerus -22.9032 -13.6261 -81.8003
rradius 26.0353
rwrist 31.7599
rhand -17.9181 -27.0694
rfingers 7.12502
rthumb 8.34941 -56.8844
lclavicle 6.11263e-015 -1.2921e-014
lhumerus -19.9485 -4.075 89.3492
lradius 20.7822
lwrist 1.15135
lhand -24.0629 -2.52767
lfingers 7.12502
lthumb 2.41661 27.4384
rfemur -14.2843 -2.77094 19.3202
rtibia 22.9626
rfoot -14.2631 -4.10286
rtoes 12.0893
lfemur -12.3976 5.99977 -18.8213
ltibia 19.002
lfoot -10.8438 7.06775
ltoes 5.99226
85
root 0.553255 17.618 -13.9032 6.8342 -1.56514 -0.917111
lowerback -3.43309 -0.273821 -0.151943
upperback 3.33917 -0.418763 1.24827
thorax 5.39305 -0.240351 1.34537
lowerneck -12.6984 1.085 -1.65768
upperneck 33.5497 1.67681 1.0473
head 13.3722 0.655752 0.952543
rclavicle -1.2921e-015 4.37326e-015
rhumerus -22.9532 -13.797 -81.6882
rradius 25.9289
rwrist 31.9009
rhand -17.9179 -27.0474
rfingers 7.12502
rthumb 8.34955 -56.8624
lclavicle -1.2921e-015 4.37326e-015
lhumerus -19.9921 -3.8645 89.2493
lradius 20.6283
lwrist 0.951805
lhand -24.0575 -2.51757
lfingers 7.12502
lthumb 2.42178 27.4484
rfemur -14.2892 -2.77232 19.3193
rtibia 22.9612
rfoot -14.2648 -4.09853
rtoes 12.1052
lfemur -12.4026 6.00041 -18.8231
ltibia 18.9998
lfoot -10.845 7.06449
ltoes 6.00044
86
root 0.553374 17.618 -13.9031 6.83822 -1.56687 -0.916656
lowerback -3.42664 -0.276486 -0.153627
upperback 3.34346 -0.422332 1.25017
thorax 5.39397 -0.242248 1.34803
lowerneck -12.6964 1.08271 -1.65935
upperneck 33.5554 1.67805 1.03487
head 13.3744 0.654344 0.948167
rclavicle 7.15625e-015 7.95139e-015
rhumerus -22.9972 -13.97 -81.5768
rradius 25.8191
rwrist 32.0476
rhand -17.9141 -27.0256
rfingers 7.12502
rthumb 8.35325 -56.8405
lclavicle 7.15625e-015 7.95139e-015
lhumerus -20.0345 -3.65393 89.1504
lradius 20.4776
lwrist 0.748779
lhand -24.0536 -2.53078
lfingers 7.12502
lthumb 2.42557 27.4352
rfemur -14.2924 -2.77264 19.3182
rtibia 22.9599
rfoot -14.2653 -4.09434
rtoes 12.1171
lfemur -12.4057 6.00203 -18.8247
ltibia 18.9991
lfoot -10.8473 7.0624
ltoes 6.0146
87
root 0.553494 17.6181 -13.903 6.84096 -1.56959 -0.916414
lowerback -3.4186 -0.278962 -0.155626
upperback 3.34836 -0.425648 1.25248
thorax 5.39464 -0.244041 1.3513
lowerneck -12.6924 1.0791 -1.66565
upperneck 33.5582 1.6772 1.02639
head 13.3748 0.651992 0.945792
rclavicle 9.44227e-016 -2.98177e-015
rhumerus -23.0387 -14.1384 -81.4673
rradius 25.7113
rwrist 32.1891
rhand -17.903 -27.0171
rfingers 7.12502
rthumb 8.36395 -56.8315
lclavicle 9.44227e-016 -2.98177e-015
lhumerus -20.0763 -3.45532 89.0548
lradius 20.3353
lwrist 0.565393
lhand -24.0492 -2.55469
lfingers 7.12502
lthumb 2.42985 27.4112
rfemur -14.2943 -2.77348 19.3174
rtibia 22.9583
rfoot -14.2646 -4.08936
rtoes 12.1259
lfemur -12.4081 6.00434 -18.826
ltibia 18.9999
lfoot -10.8484 7.0623
ltoes 6.0277
88
root 0.553639 17.618 -13.9029 6.84257 -1.57281 -0.917565
lowerback -3.40852 -0.280641 -0.155618
upperback 3.3539 -0.427986 1.25424
thorax 5.39476 -0.245262 1.35297
lowerneck -12.6904 1.0747 -1.67123
upperneck 33.5617 1.67455 1.01935
head 13.376 0.649124 0.943625
rclavicle 1.68967e-015 9.93923e-015
rhumerus -23.0798 -14.2988 -81.3623
rradius 25.6103
rwrist 32.3196
rhand -17.8853 -27.0243
rfingers 7.12502
rthumb 8.38105 -56.8381
lclavicle 1.68967e-015 9.93923e-015
lhumerus -20.1159 -3.27178 88.9621
lradius 20.1982
lwrist 0.393643
lhand -24.0538 -2.56635
lfingers 7.12502
lthumb 2.42539 27.3996
rfemur -14.295 -2.77448 19.3181
rtibia 22.9564
rfoot -14.262 -4.08524
rtoes 12.1263
lfemur -12.4098 6.0062 -18.8257
ltibia 19.0022
lfoot -10.8495 7.06516
ltoes 6.03414
89
root 0.553768 17.618 -13.9028 6.84535 -1.57561 -0.91977
lowerback -3.39876 -0.282016 -0.15416
upperback 3.35875 -0.429979 1.25564
thorax 5.39432 -0.246242 1.35348
lowerneck -12.6882 1.0693 -1.67803
upperneck 33.5652 1.66978 1.01522
head 13.3771 0.645561 0.942496
rclavicle 9.93923e-016 5.96354e-015
rhumerus -23.1226 -14.4498 -81.2612
rradius 25.5159
rwrist 32.446
rhand -17.8677 -27.033
rfingers 7.12502
rthumb 8.39801 -56.8461
lclavicle 9.93923e-016 5.96354e-015
lhumerus -20.1568 -3.10513 88.8725
lradius 20.0707
lwrist 0.23945
lhand -24.0704 -2.59544
lfingers 7.12502
lthumb 2.40938 27.3707
rfemur -14.2969 -2.77402 19.3202
rtibia 22.954
rfoot -14.2588 -4.08313
rtoes 12.1243
lfemur -12.4134 6.00875 -18.8242
ltibia 19.0054
lfoot -10.8511 7.06734
ltoes 6.04259
